<svg width="21" height="23" viewBox="0 0 21 23" fill="none" xmlns="http://www.w3.org/2000/svg">
<path d="M1.56164 14.1933L1.92688 12.1219C2.35856 9.67364 2.5744 8.44952 3.42914 7.72476C4.28389 7 5.51171 7 7.96734 7H13.0327C15.4883 7 16.7161 7 17.5709 7.72476C18.4256 8.44952 18.6414 9.67364 19.0731 12.1219L19.4384 14.1933C20.0357 17.5811 20.3344 19.275 19.4147 20.3875C18.495 21.5 16.7959 21.5 13.3979 21.5H7.6021C4.20406 21.5 2.50504 21.5 1.58533 20.3875C0.665623 19.275 0.964295 17.5811 1.56164 14.1933Z" stroke="#717171" stroke-width="1.5"/>
<path d="M6 7L6.16782 4.98618C6.35558 2.73306 8.23907 1 10.5 1C12.7609 1 14.6444 2.73306 14.8322 4.98618L15 7" stroke="#717171" stroke-width="1.5"/>
<path d="M13.5 10C13.37 11.4131 12.0657 12.5 10.5 12.5C8.93433 12.5 7.63002 11.4131 7.5 10" stroke="#717171" stroke-width="1.5" stroke-linecap="round"/>
</svg>
