<svg width="21" height="21" viewBox="0 0 21 21" fill="none" xmlns="http://www.w3.org/2000/svg">
<path d="M12.0509 3.67248C12.703 2.96603 13.029 2.6128 13.3754 2.40677C14.2114 1.90962 15.2407 1.89416 16.0905 2.36599C16.4427 2.56153 16.7788 2.90481 17.4509 3.59137C18.1229 4.27793 18.459 4.62121 18.6504 4.98102C19.1123 5.84918 19.0972 6.90065 18.6105 7.75457C18.4088 8.10847 18.063 8.44151 17.3715 9.10759L9.14325 17.0327C7.83272 18.295 7.17745 18.9261 6.3585 19.246C5.53956 19.5658 4.63925 19.5423 2.83864 19.4952L2.59366 19.4888C2.04549 19.4745 1.77141 19.4673 1.61209 19.2865C1.45277 19.1057 1.47452 18.8265 1.51802 18.2681L1.54164 17.9649C1.66408 16.3933 1.7253 15.6075 2.03219 14.9011C2.33909 14.1948 2.86846 13.6212 3.9272 12.4741L12.0509 3.67248Z" stroke="#717171" stroke-width="1.5" stroke-linejoin="round"/>
<path d="M11.1115 3.77271L17.2365 9.8977" stroke="#717171" stroke-width="1.5" stroke-linejoin="round"/>
<path d="M11.9865 19.5227L18.9865 19.5227" stroke="#717171" stroke-width="1.5" stroke-linecap="round" stroke-linejoin="round"/>
</svg>
