<svg width="38" height="38" viewBox="0 0 38 38" fill="none" xmlns="http://www.w3.org/2000/svg">
<rect x="0.3013" y="0.688232" width="36.904" height="36.904" rx="9.22599" fill="#69C9D0"/>
<g clip-path="url(#clip0_862_2698)">
<g clip-path="url(#clip1_862_2698)">
<path d="M20.6306 12.8362C21.1895 12.2307 21.4689 11.9279 21.7659 11.7513C22.4824 11.3252 23.3646 11.3119 24.0931 11.7164C24.395 11.884 24.683 12.1782 25.2591 12.7667C25.8352 13.3552 26.1232 13.6494 26.2873 13.9578C26.6832 14.702 26.6702 15.6032 26.2531 16.3351C26.0802 16.6385 25.7838 16.924 25.191 17.4949L18.1383 24.2878C17.015 25.3698 16.4533 25.9107 15.7514 26.1849C15.0494 26.4591 14.2777 26.4389 12.7343 26.3986L12.5244 26.3931C12.0545 26.3808 11.8196 26.3746 11.683 26.2197C11.5464 26.0647 11.5651 25.8254 11.6024 25.3467L11.6226 25.0869C11.7276 23.7398 11.78 23.0662 12.0431 22.4608C12.3061 21.8553 12.7599 21.3637 13.6674 20.3805L20.6306 12.8362Z" stroke="white" stroke-width="1.5" stroke-linejoin="round"/>
<path d="M19.8253 12.9221L25.0753 18.1721" stroke="white" stroke-width="1.5" stroke-linejoin="round"/>
<path d="M20.5753 26.4221L26.5753 26.4221" stroke="white" stroke-width="1.5" stroke-linecap="round" stroke-linejoin="round"/>
</g>
</g>
<defs>
<clipPath id="clip0_862_2698">
<rect width="18" height="18" fill="white" transform="translate(10.3013 9.68823)"/>
</clipPath>
<clipPath id="clip1_862_2698">
<rect width="18" height="18" fill="white" transform="translate(10.0753 9.92212)"/>
</clipPath>
</defs>
</svg>
