<svg width="23" height="22" viewBox="0 0 23 22" fill="none" xmlns="http://www.w3.org/2000/svg">
<path d="M11.5002 17L11.5002 14" stroke="#217A7E" stroke-width="1.5" stroke-linecap="round"/>
<path d="M1.85157 12.2135C1.49855 9.91624 1.32204 8.76763 1.75635 7.74938C2.19065 6.73112 3.15421 6.03443 5.08132 4.64106L6.52117 3.6C8.91847 1.86667 10.1171 1 11.5002 1C12.8832 1 14.0819 1.86667 16.4792 3.6L17.919 4.64106C19.8462 6.03443 20.8097 6.73112 21.244 7.74938C21.6783 8.76763 21.5018 9.91624 21.1488 12.2135L20.8478 14.1724C20.3473 17.4289 20.0971 19.0572 18.9292 20.0286C17.7613 21 16.0538 21 12.639 21H10.3614C6.94652 21 5.23909 21 4.07118 20.0286C2.90327 19.0572 2.65305 17.4289 2.15261 14.1724L1.85157 12.2135Z" stroke="#217A7E" stroke-width="1.5" stroke-linejoin="round"/>
</svg>
