<svg width="38" height="38" viewBox="0 0 38 38" fill="none" xmlns="http://www.w3.org/2000/svg">
<rect x="0.3013" y="0.249512" width="36.904" height="36.904" rx="9.22599" fill="#FDE047"/>
<path d="M25.5958 16.2733L24.2856 15.1355C23.3416 14.3157 22.9715 13.8746 22.4603 14.0306C21.8229 14.225 22.0328 15.4516 22.0328 15.8657C21.0417 15.8657 20.0114 15.7895 19.0345 15.9483C15.8097 16.4726 14.8013 18.767 14.8013 21.2389C15.714 20.6794 16.6258 20.0555 17.7228 19.7962C19.0922 19.4725 20.6215 19.6269 22.0328 19.6269C22.0328 20.041 21.8229 21.2677 22.4603 21.4621C23.0396 21.6387 23.3416 21.177 24.2856 20.3572L25.5958 19.2194C26.3994 18.5215 26.8013 18.1725 26.8013 17.7463C26.8013 17.3201 26.3994 16.9712 25.5958 16.2733Z" stroke="white" stroke-width="1.5" stroke-linecap="round" stroke-linejoin="round"/>
<path d="M18.227 12.4995C15.3318 12.5047 13.8157 12.5756 12.8468 13.5426C11.8013 14.586 11.8013 16.2655 11.8013 19.6243C11.8013 22.9832 11.8013 24.6626 12.8468 25.706C13.8924 26.7495 15.5753 26.7495 18.9409 26.7495C22.3066 26.7495 23.9894 26.7495 25.035 25.7061C25.763 24.9795 25.9841 23.9448 26.0513 22.2495" stroke="white" stroke-width="1.5" stroke-linecap="round" stroke-linejoin="round"/>
</svg>
