<svg width="38" height="38" viewBox="0 0 38 38" fill="none" xmlns="http://www.w3.org/2000/svg">
<rect x="0.3013" y="0.530029" width="36.904" height="36.904" rx="9.22599" fill="#22C55E"/>
<g clip-path="url(#clip0_862_2728)">
<path d="M20 9.8418C17.6131 9.8418 15.3239 10.79 13.636 12.4778C11.9482 14.1657 11 16.4548 11 18.8418H8L11.89 22.7318L11.96 22.8718L16 18.8418H13C13 14.9718 16.13 11.8418 20 11.8418C23.87 11.8418 27 14.9718 27 18.8418C27 22.7118 23.87 25.8418 20 25.8418C18.07 25.8418 16.32 25.0518 15.06 23.7818L13.64 25.2018C14.4734 26.0398 15.4645 26.7045 16.5561 27.1576C17.6476 27.6108 18.8181 27.8433 20 27.8418C22.3869 27.8418 24.6761 26.8936 26.364 25.2058C28.0518 23.5179 29 21.2287 29 18.8418C29 16.4548 28.0518 14.1657 26.364 12.4778C24.6761 10.79 22.3869 9.8418 20 9.8418ZM19 14.8418V19.8418L23.25 22.3618L24.02 21.0818L20.5 18.9918V14.8418H19Z" fill="white"/>
</g>
<defs>
<clipPath id="clip0_862_2728">
<rect width="24" height="24" fill="white" transform="translate(7.30127 6.53003)"/>
</clipPath>
</defs>
</svg>
